name C:\Users\u0101727\Documents\MyRepositories\upper-imu-dc\Results\main_tracking\Case_49\kinematics_filtered.mot
datacolumns 10
datarows 33
range 5.20000000 5.52000000
endheader 
time	clav_prot	clav_elev	scapula_abduction	scapula_elevation	scapula_upward_rot	scapula_winging	plane_elv	shoulder_elv	axial_rot	
          5.20000000	        -46.69524401	          8.52943691	        -30.50556830	         -2.88818625	         47.97284412	        -14.20937505	         26.56481149	         71.75374559	        -18.44640226	
          5.21000000	        -46.64538613	          8.47893779	        -30.77755098	         -2.87876072	         47.49682596	        -14.10276197	         26.50925383	         71.06113777	        -18.70067340	
          5.22000000	        -46.59407653	          8.42659652	        -31.03637720	         -2.87034675	         47.03418961	        -13.99459408	         26.44343188	         70.35666031	        -18.95664671	
          5.23000000	        -46.54110517	          8.37269312	        -31.28229112	         -2.86279624	         46.58437332	        -13.88490127	         26.36646646	         69.64199376	        -19.21616797	
          5.24000000	        -46.48621739	          8.31751127	        -31.51549461	         -2.85594345	         46.14679182	        -13.77366784	         26.27751722	         68.91875243	        -19.48094056	
          5.25000000	        -46.42913203	          8.26133247	        -31.73617736	         -2.84960946	         45.72082705	        -13.66084264	         26.17584268	         68.18845606	        -19.75248663	
          5.26000000	        -46.36955940	          8.20442934	        -31.94454587	         -2.84360726	         45.30581912	        -13.54634858	         26.06085560	         67.45251040	        -20.03214344	
          5.27000000	        -46.30721754	          8.14705817	        -32.14084883	         -2.83774721	         44.90105853	        -13.43009076	         25.93217000	         66.71219848	        -20.32109717	
          5.28000000	        -46.24184608	          8.08945058	        -32.32539689	         -2.83184309	         44.50578054	        -13.31196275	         25.78963632	         65.96868308	        -20.62044941	
          5.29000000	        -46.17321641	          8.03180439	        -32.49857492	         -2.82571874	         44.11916230	        -13.19185042	         25.63336243	         65.22301991	        -20.93130316	
          5.30000000	        -46.10113757	          7.97427373	        -32.66084538	         -2.81921516	         43.74032332	        -13.06963306	         25.46371851	         64.47617995	        -21.25484891	
          5.31000000	        -46.02545707	          7.91695849	        -32.81274163	         -2.81219805	         43.36832943	        -12.94518129	         25.28132497	         63.72907792	        -21.59242711	
          5.32000000	        -45.94605648	          7.85989334	        -32.95485104	         -2.80456588	         43.00220066	        -12.81835219	         25.08702369	         62.98260341	        -21.94554372	
          5.33000000	        -45.86284220	          7.80303651	        -33.08778832	         -2.79625809	         42.64092279	        -12.68898172	         24.88183397	         62.23765066	        -22.31582045	
          5.34000000	        -45.77573235	          7.74625892	        -33.21216099	         -2.78726344	         42.28346250	        -12.55687556	         24.66689589	         61.49514292	        -22.70487013	
          5.35000000	        -45.68464136	          7.68933437	        -33.32852984	         -2.77762783	         41.92878549	        -12.42179959	         24.44340491	         60.75604801	        -23.11409980	
          5.36000000	        -45.58946432	          7.63193196	        -33.43736824	         -2.76746120	         41.57587677	        -12.28347160	         24.21254253	         60.02138234	        -23.54445614	
          5.37000000	        -45.49006329	          7.57361177	        -33.53902479	         -2.75694254	         41.22376203	        -12.14155583	         23.97540823	         59.29220209	        -23.99613919	
          5.38000000	        -45.38625767	          7.51382527	        -33.63369361	         -2.74632233	         40.87152891	        -11.99566208	         23.73295787	         58.56958137	        -24.46831788	
          5.39000000	        -45.27782044	          7.45192148	        -33.72139598	         -2.73592158	         40.51834711	        -11.84535041	         23.48595324	         57.85457857	        -24.95888382	
          5.40000000	        -45.16448141	          7.38715960	        -33.80197624	         -2.72612692	         40.16348634	        -11.69014222	         23.23492654	         57.14819342	        -25.46427804	
          5.41000000	        -45.04593801	          7.31872843	        -33.87511319	         -2.71738151	         39.80633133	        -11.52953777	         22.98016219	         56.45131800	        -25.97941820	
          5.42000000	        -44.92187327	          7.24577211	        -33.94034711	         -2.71017188	         39.44639333	        -11.36303942	         22.72169751	         55.76468578	        -26.49774276	
          5.43000000	        -44.79198003	          7.16742142	        -33.99712081	         -2.70501106	         39.08331784	        -11.19017953	         22.45934200	         55.08882252	        -27.01137521	
          5.44000000	        -44.65598971	          7.08282902	        -34.04483225	         -2.70241889	         38.71688824	        -11.01055111	         22.19271413	         54.42400277	        -27.51139697	
          5.45000000	        -44.51370364	          6.99120694	        -34.08289496	         -2.70290037	         38.34702546	        -10.82383922	         21.92129318	         53.77021492	        -27.98820548	
          5.46000000	        -44.36502459	          6.89186417	        -34.11080238	         -2.70692328	         37.97378364	        -10.62985103	         21.64448253	         53.12713684	        -28.43192485	
          5.47000000	        -44.20998625	          6.78424220	        -34.12819160	         -2.71489636	         37.59734214	        -10.42854209	         21.36168004	         52.49412335	        -28.83283286	
          5.48000000	        -44.04877854	          6.66794634	        -34.13490264	         -2.72714922	         37.21799414	        -10.22003736	         21.07235076	         51.87020577	        -29.18176895	
          5.49000000	        -43.88176710	          6.54277102	        -34.13102953	         -2.74391519	         36.83613213	        -10.00464507	         20.77609698	         51.25410298	        -29.47049356	
          5.50000000	        -43.70950563	          6.40871759	        -34.11696059	         -2.76531785	         36.45223072	         -9.78286288	         20.47272105	         50.64424332	        -29.69197756	
          5.51000000	        -43.53274043	          6.26600381	        -34.09340569	         -2.79136210	         36.06682738	         -9.55537566	         20.16227707	         50.03879558	        -29.84060966	
          5.52000000	        -43.35240688	          6.11506445	        -34.06140964	         -2.82192984	         35.68050160	         -9.32304528	         19.84510839	         49.43570800	        -29.91231896	
